# AST/ASF file generated using VICON BodyLanguage
# -----------------------------------------------
:version 1.10
:name VICON
:units
  mass 1.0
  length 0.45
  angle deg
:documentation
   .ast/.asf automatically generated from VICON data using
   VICON BodyBuilder and BodyLanguage model FoxedUp or BRILLIANT.MOD
:root
   order TX TY TZ RX RY RZ
   axis XYZ
   position 0 0 0  
   orientation 0 0 0 
:bonedata
  begin
     id 1 
     name lhipjoint
     direction 0.627457 -0.725269 0.283342 
     length 2.53237 
     axis 0 0 0  XYZ
  end
  begin
     id 2 
     name lfemur
     direction 0.34202 -0.939693 0  
     length 7.32496  
     axis 0 0 20  XYZ
    dof rx ry rz
    limits (-160.0 20.0)
           (-70.0 70.0)
           (-60.0 70.0)
  end
  begin
     id 3 
     name ltibia
     direction 0.34202 -0.939693 0   
     length 7.69674   
     axis 0 0 20   XYZ
    dof rx
    limits (-10.0 170.0)
  end
  begin
     id 4 
     name lfoot
     direction 0.127289 -0.349722 0.928166   
     length 1.8612   
     axis -90 7.62852e-016 20   XYZ
    dof rx rz
    limits (-45.0 90.0)
           (-70.0 20.0)
  end
  begin
     id 5 
     name ltoes
     direction 1.53561e-011 -4.21864e-011 1   
     length 0.925608   
     axis -90 7.62852e-016 20   XYZ
    dof rx
    limits (-90.0 20.0)
  end
  begin
     id 6 
     name rhipjoint
     direction -0.609094 -0.738725 0.288599   
     length 2.48624  
     axis 0 0 0  XYZ 
  end
  begin
     id 7 
     name rfemur
     direction -0.34202 -0.939693 0   
     length 7.44259   
     axis 0 0 -20   XYZ
    dof rx ry rz
    limits (-160.0 20.0)
           (-70.0 70.0)
           (-70.0 60.0)
  end
  begin
     id 8 
     name rtibia
     direction -0.34202 -0.939693 0   
     length 7.7781   
     axis 0 0 -20   XYZ
    dof rx
    limits (-10.0 170.0)
 end
 begin
     id 9 
     name rfoot
     direction -0.107015 -0.294021 0.949789   
     length 2.14741  
     axis -90 -7.62852e-016 -20   XYZ
    dof rx rz
    limits (-45.0 90.0)
           (-20.0 70.0)
  end
  begin
     id 10 
     name rtoes
     direction -1.53497e-011 -4.21924e-011 1   
     length 1.0706   
     axis -90 -7.62852e-016 -20   XYZ
    dof rx
    limits (-90.0 20.0)
  end
  begin
     id 11 
     name lowerback
     direction -0.0142066 0.998112 -0.0597545   
     length 1.86627   
     axis 0 0 0   XYZ
    dof rx ry rz
    limits (-20.0 45.0)
           (-30.0 30.0)
           (-30.0 30.0)
  end
  begin
     id 12 
     name upperback
     direction 0.00547294 0.999744 0.0219437   
     length 1.86272   
     axis 0 0 0   XYZ
    dof rx ry rz
    limits (-20.0 45.0)
           (-30.0 30.0)
           (-30.0 30.0)
  end
  begin
     id 13 
     name thorax
     direction 0.0116162 0.998704 0.0495538   
     length 1.8703   
     axis 0 0 0   XYZ
    dof rx ry rz
    limits (-20.0 45.0)
           (-30.0 30.0)
           (-30.0 30.0)
  end
  begin
     id 14 
     name lowerneck
     direction -0.0106574 0.998739 0.0490586   
     length 1.8074   
     axis 0 0 0   XYZ
    dof rx ry rz
    limits (-20.0 45.0)
           (-30.0 30.0)
           (-30.0 30.0)
  end
  begin
     id 15 
     name upperneck
     direction 0.030527 0.976587 -0.212944   
     length 1.80681   
     axis 0 0 0   XYZ
    dof rx ry rz
    limits (-20.0 45.0)
           (-30.0 30.0)
           (-30.0 30.0)
  end
  begin
     id 16
     name head
     direction 0.00869225 0.997035 -0.0764531  
     length 1.8313  
     axis 0 0 0   XYZ
    dof rx ry rz
    limits (-20.0 45.0)
           (-30.0 30.0)
           (-30.0 30.0)
  end
  begin
     id 17 
     name lclavicle
     direction 0.915958 0.399447 0.0382386  
     length 3.78965  
     axis 0 0 0   XYZ
    dof ry rz
    limits (-20.0 10.0)
           (0.0 20.0)
  end
  begin
     id 18 
     name lhumerus
     direction 1 -4.48967e-011 3.19303e-027   
     length 4.78095   
     axis -180 -30 -90   XYZ
    dof rx ry rz
    limits (-60.0 90.0)
           (-90.0 90.0)
           (-90.0 90.0)
  end
  begin
     id 19
     name lradius
     direction 1 -4.48967e-011 -3.77974e-027   
     length 3.58615   
     axis -180 -30 -90   XYZ
    dof rx
    limits (-10.0 170.0)
  end
  begin
     id 20
     name lwrist
     direction 1 -4.48927e-011 1.2807e-027   
     length 1.79307   
     axis 1.91374e-015 90 90   XYZ
    dof ry
    limits (-180.0 0.0)
 end
  begin
     id 21 
     name lhand
     direction 1 -4.49036e-011 2.5614e-027   
     length 0.659812   
     axis -1.63439e-015 90 90   XYZ
    dof rx rz
    limits (-90.0 90.0)
           (-45.0 45.0)
  end
  begin
     id 22 
     name lfingers
     direction 1 -4.49052e-011 5.1228e-027   
     length 0.531957   
     axis -3.26879e-015 90 90   XYZ
    dof rx
    limits (0.0 90.0)
  end
  begin
     id 23
     name lthumb
     direction 0.707107 -6.35012e-011 0.707107   
     length 0.763787   
     axis -90 45 2.85299e-015   XYZ
    dof rx rz
    limits (-45.0 45.0)
           (-45.0 45.0)
  end
  begin
     id 24 
     name rclavicle
     direction -0.895351 0.435135 0.0948887   
     length 3.70497  
     axis 0 0 0   XYZ 
    dof ry rz
    limits (-10.0 20.0)
           (-20.0 0.0)
  end
  begin
     id 25 
     name rhumerus
     direction -1 -4.48971e-011 2.38946e-027  
     length 4.48913   
     axis -180 30 90   XYZ
    dof rx ry rz
    limits (-90.0 60.0)
           (-90.0 90.0)
           (-90.0 90.0)
  end
  begin
     id 26 
     name rradius
     direction -1 -4.4895e-011 4.38668e-027   
     length 3.7051   
     axis -180 30 90   XYZ
    dof rx
    limits (-10.0 170.0)
  end
  begin
     id 27 
     name rwrist
     direction -1 -4.49007e-011 1.2807e-027   
     length 1.85255   
     axis 1.91374e-015 -90 -90   XYZ
    dof ry
    limits (-180.0 0.0)
  end
  begin
     id 28
     name rhand
     direction -1 -4.48851e-011 2.5614e-027   
     length 0.449136   
     axis -1.63439e-015 -90 -90   XYZ
    dof rx rz
    limits (-90.0 90.0)
           (-45.0 45.0)
  end
  begin
     id 29
     name rfingers
     direction -1 -4.49128e-011 5.1228e-027   
     length 0.362105   
     axis -3.26879e-015 -90 -90   XYZ
    dof rx
    limits (0.0 90.0)
  end
  begin
     id 30
     name rthumb
     direction -0.707107 -6.34851e-011 0.707107   
     length 0.519912   
     axis -90 -45 -2.85299e-015   XYZ
    dof rx rz
    limits (-45.0 45.0)
           (-45.0 45.0)
  end
:hierarchy
  begin
    root lhipjoint rhipjoint lowerback
    lhipjoint lfemur
    lfemur ltibia
    ltibia lfoot
    lfoot ltoes
    rhipjoint rfemur
    rfemur rtibia
    rtibia rfoot
    rfoot rtoes
    lowerback upperback
    upperback thorax
    thorax lowerneck lclavicle rclavicle
    lowerneck upperneck
    upperneck head
    lclavicle lhumerus
    lhumerus lradius
    lradius lwrist
    lwrist lhand lthumb
    lhand lfingers
    rclavicle rhumerus
    rhumerus rradius
    rradius rwrist
    rwrist rhand rthumb
    rhand rfingers
  end

#!OML:ASF I:\Actors\actors\Patient Classification 2\Patient 1\Session 1\actor1.ASF
:FULLY-SPECIFIED
:DEGREES
24
root -0.456684 18.6583 5.81793 2.22137 -4.24475 -2.39616
lowerback 2.74932 0.75442 0.306187
upperback -3.72626 1.06069 0.742743
thorax -5.40483 0.529766 0.519246
lowerneck -9.68883 -1.64827 -1.28028
upperneck 24.5206 -2.65789 2.27151
head 9.3471 -1.1241 0.709614
rclavicle 1.0343e-014 -4.47266e-015
rhumerus -51.4943 -4.72335 -84.7873
rradius 43.5672
rwrist 10.9964
rhand -5.4979 -35.6543
rfingers 7.12502
rthumb 20.315 -64.6118
lclavicle 1.0343e-014 -4.47266e-015
lhumerus -44.2087 1.72514 90.4183
lradius 37.2702
lwrist -8.65516
lhand -6.16352 -23.876
lfingers 7.12502
lthumb 19.6752 5.1483
rfemur 0 0 0
rtibia 0
rfoot 0 0
rtoes 0
lfemur -4.10089 -2.4487 -12.489
ltibia 22.8692
lfoot -25.3841 16.2393
ltoes -54.7578
25
root -0.457704 18.6582 5.81665 2.19717 -4.26569 -2.42231
lowerback 2.78446 0.762059 0.317343
upperback -3.73776 1.07236 0.75186
thorax -5.4371 0.535264 0.521025
lowerneck -9.70202 -1.6632 -1.33058
upperneck 24.4782 -2.68168 2.3271
head 9.33673 -1.13405 0.73452
rclavicle 1.12748e-014 6.85807e-015
rhumerus -51.4913 -4.71954 -84.8137
rradius 43.6282
rwrist 11.07
rhand -5.29815 -35.7766
rfingers 7.12502
rthumb 20.5069 -64.7136
lclavicle 1.12748e-014 6.85807e-015
lhumerus -44.2434 1.71571 90.4128
lradius 37.3208
lwrist -8.6265
lhand -6.1119 -23.8169
lfingers 7.12502
lthumb 19.7248 5.2023
rfemur 0 0 0
rtibia 0
rfoot 0 0
rtoes 0
lfemur -4.07793 -2.41162 -12.4574
ltibia 22.8717
lfoot -25.3823 16.2324
ltoes -54.8468
26
root -0.458239 18.6586 5.8147 2.18099 -4.29346 -2.42539
lowerback 2.81683 0.77599 0.320093
upperback -3.74676 1.09178 0.757184
thorax -5.4653 0.544863 0.523043
lowerneck -9.68289 -1.67131 -1.34934
upperneck 24.4224 -2.68144 2.30122
head 9.31337 -1.13893 0.728911
rclavicle 1.09766e-014 -8.15017e-015
rhumerus -51.4221 -4.8017 -84.7222
rradius 43.3409
rwrist 10.7421
rhand -5.77429 -35.6838
rfingers 7.12502
rthumb 20.0493 -64.6693
lclavicle 1.09766e-014 -8.15017e-015
lhumerus -44.2595 1.70996 90.4261
lradius 37.3548
lwrist -8.65383
lhand -6.11153 -23.7577
lfingers 7.12502
lthumb 19.7251 5.26147
rfemur 0 0 0
rtibia 0
rfoot 0 0
rtoes 0
lfemur -4.0565 -2.3903 -12.4519
ltibia 22.863
lfoot -25.4121 16.1962
ltoes -54.8427
27
root -0.458864 18.6582 5.81255 2.15913 -4.32365 -2.38244
lowerback 2.83613 0.789453 0.279672
upperback -3.73823 1.10718 0.747053
thorax -5.46808 0.553903 0.533811
lowerneck -9.68045 -1.66425 -1.33725
upperneck 24.349 -2.65518 2.23497
head 9.28547 -1.13307 0.706885
rclavicle 4.92613e-015 1.15295e-014
rhumerus -51.3465 -4.8487 -84.7004
rradius 43.257
rwrist 10.6431
rhand -5.75229 -35.7309
rfingers 7.12502
rthumb 20.0705 -64.7143
lclavicle 4.92613e-015 1.15295e-014
lhumerus -44.2171 1.7461 90.4215
lradius 37.3308
lwrist -8.75083
lhand -6.08056 -23.7584
lfingers 7.12502
lthumb 19.7549 5.2577
rfemur 0 0 0
rtibia 0
rfoot 0 0
rtoes 0
lfemur -4.03201 -2.39602 -12.4997
ltibia 22.8604
lfoot -25.4618 16.1495
ltoes -54.7535
28
root -0.459679 18.6571 5.8101 2.12908 -4.34083 -2.32399
lowerback 2.85625 0.796062 0.219693
upperback -3.72254 1.11175 0.726355
thorax -5.46387 0.558127 0.545436
lowerneck -9.69321 -1.65385 -1.30448
upperneck 24.2672 -2.62944 2.17411
head 9.25736 -1.12491 0.683035
rclavicle 6.34247e-015 -4.27387e-015
rhumerus -51.2941 -4.84845 -84.7372
rradius 43.2849
rwrist 10.6299
rhand -5.64388 -35.6601
rfingers 7.12502
rthumb 20.1747 -64.6325
lclavicle 6.34247e-015 -4.27387e-015
lhumerus -44.1642 1.77638 90.4078
lradius 37.3015
lwrist -8.76662
lhand -6.05067 -23.7868
lfingers 7.12502
lthumb 19.7836 5.22641
rfemur 0 0 0
rtibia 0
rfoot 0 0
rtoes 0
lfemur -4.01766 -2.36369 -12.5622
ltibia 22.8721
lfoot -25.4301 16.1534
ltoes -54.7893
29
root -0.460737 18.6561 5.80736 2.10956 -4.3507 -2.33121
lowerback 2.88242 0.797303 0.215409
upperback -3.73093 1.11338 0.725289
thorax -5.48775 0.559068 0.546179
lowerneck -9.66708 -1.64685 -1.32011
upperneck 24.2204 -2.62472 2.2116
head 9.23667 -1.12065 0.69922
rclavicle -6.52883e-015 -1.68967e-014
rhumerus -51.2881 -4.81063 -84.7941
rradius 43.3123
rwrist 10.5803
rhand -5.62842 -35.6152
rfingers 7.12502
rthumb 20.1895 -64.5861
lclavicle -6.52883e-015 -1.68967e-014
lhumerus -44.1764 1.74642 90.4088
lradius 37.3048
lwrist -8.6909
lhand -6.07284 -23.7878
lfingers 7.12502
lthumb 19.7623 5.22758
rfemur 0 0 0
rtibia 0
rfoot 0 0
rtoes 0
lfemur -4.02348 -2.21102 -12.5352
ltibia 22.8887
lfoot -25.2794 16.118
ltoes -54.9547
30
root -0.462188 18.6552 5.80487 2.08266 -4.35455 -2.33374
lowerback 2.8844 0.804935 0.197235
upperback -3.72894 1.12295 0.732611
thorax -5.4874 0.56472 0.563202
lowerneck -9.6301 -1.64504 -1.34671
upperneck 24.1945 -2.62625 2.25134
head 9.22158 -1.11998 0.717474
rclavicle 1.03741e-014 -4.87022e-015
rhumerus -51.277 -4.77028 -84.8601
rradius 43.4063
rwrist 10.7059
rhand -5.57799 -35.6189
rfingers 7.12502
rthumb 20.238 -64.5846
lclavicle 1.03741e-014 -4.87022e-015
lhumerus -44.1716 1.73465 90.414
lradius 37.2759
lwrist -8.71894
lhand -6.09458 -23.8342
lfingers 7.12502
lthumb 19.7414 5.18328
rfemur 0 0 0
rtibia 0
rfoot 0 0
rtoes 0
lfemur -4.0197 -2.03665 -12.504
ltibia 22.912
lfoot -25.171 15.9729
ltoes -55.0137
31
root -0.462758 18.6545 5.80235 2.03986 -4.35333 -2.28021
lowerback 2.8705 0.817646 0.142136
upperback -3.69617 1.1362 0.724858
thorax -5.44609 0.573344 0.585451
lowerneck -9.62822 -1.63826 -1.31961
upperneck 24.1336 -2.60158 2.17633
head 9.19801 -1.11422 0.689796
rclavicle 1.22812e-014 -3.8763e-015
rhumerus -51.2399 -4.73173 -84.9453
rradius 43.679
rwrist 11.1155
rhand -5.13827 -35.6976
rfingers 7.12502
rthumb 20.6606 -64.6179
lclavicle 1.22812e-014 -3.8763e-015
lhumerus -44.0999 1.74158 90.4297
lradius 37.2287
lwrist -8.77384
lhand -6.09295 -23.9197
lfingers 7.12502
lthumb 19.743 5.09767
rfemur 0 0 0
rtibia 0
rfoot 0 0
rtoes 0
lfemur -3.99919 -2.09341 -12.5721
ltibia 22.9457
lfoot -25.2212 16.0033
ltoes -54.9882
32
root -0.463123 18.6538 5.79913 1.98746 -4.36066 -2.29484
lowerback 2.90879 0.818614 0.173892
upperback -3.67421 1.13908 0.720195
thorax -5.44424 0.573343 0.562203
lowerneck -9.66811 -1.62191 -1.3083
upperneck 24.142 -2.57359 2.14809
head 9.20736 -1.10268 0.680915
rclavicle 1.88038e-014 1.59028e-015
rhumerus -51.203 -4.73603 -85.0047
rradius 43.711
rwrist 11.0833
rhand -5.48048 -35.4766
rfingers 7.12502
rthumb 20.3317 -64.4324
lclavicle 1.88038e-014 1.59028e-015
lhumerus -44.06 1.68514 90.4409
lradius 37.2261
lwrist -8.6977
lhand -6.1132 -23.9641
lfingers 7.12502
lthumb 19.7235 5.05521
rfemur 0 0 0
rtibia 0
rfoot 0 0
rtoes 0
lfemur -3.95686 -2.28955 -12.5862
ltibia 22.9743
lfoot -25.3345 16.2011
ltoes -54.94
33
root -0.464695 18.6535 5.79461 1.93496 -4.34414 -2.33452
lowerback 2.96575 0.81555 0.21879
upperback -3.66516 1.13768 0.717922
thorax -5.4664 0.57074 0.534032
lowerneck -9.70531 -1.62394 -1.38586
upperneck 24.2238 -2.58995 2.25728
head 9.2459 -1.10494 0.729555
rclavicle -1.10077e-014 -1.02374e-014
rhumerus -51.1939 -4.72612 -85.0726
rradius 43.754
rwrist 10.9609
rhand -5.62587 -35.6114
rfingers 7.12502
rthumb 20.192 -64.582
lclavicle -1.10077e-014 -1.02374e-014
lhumerus -44.0581 1.5805 90.4566
lradius 37.2436
lwrist -8.57943
lhand -6.16602 -23.9542
lfingers 7.12502
lthumb 19.6728 5.07039
rfemur 0 0 0
rtibia 0
rfoot 0 0
rtoes 0
lfemur -3.93015 -2.28885 -12.5349
ltibia 22.9998
lfoot -25.3134 16.2422
ltoes -54.9223
34
root -0.467035 18.6527 5.78968 1.88299 -4.28799 -2.31158
lowerback 2.99016 0.813037 0.180715
upperback -3.65068 1.13196 0.711606
thorax -5.46573 0.569285 0.548999
lowerneck -9.68915 -1.63515 -1.48909
upperneck 24.2659 -2.6168 2.37987
head 9.26127 -1.1136 0.786459
rclavicle -3.36319e-014 1.49089e-015
rhumerus -51.1988 -4.71547 -85.1028
rradius 43.8088
rwrist 10.8411
rhand -5.80253 -35.7946
rfingers 7.12502
rthumb 20.0222 -64.783
lclavicle -3.36319e-014 1.49089e-015
lhumerus -44.0514 1.49039 90.5039
lradius 37.2561
lwrist -8.45926
lhand -6.20172 -23.9196
lfingers 7.12502
lthumb 19.6384 5.10847
rfemur 0 0 0
rtibia 0
rfoot 0 0
rtoes 0
lfemur -3.93463 -2.16786 -12.5291
ltibia 23.0381
lfoot -25.1781 16.1332
ltoes -54.9466
